<svg fill="#000000" version="1.1" id="Capa_1" xmlns="http://www.w3.org/2000/svg" xmlns:xlink="http://www.w3.org/1999/xlink" viewBox="0 0 246.805 246.805" xml:space="preserve"><g id="SVGRepo_bgCarrier" stroke-width="0"></g><g id="SVGRepo_tracerCarrier" stroke-linecap="round" stroke-linejoin="round"></g><g id="SVGRepo_iconCarrier"> <g> <g id="_x32__67_"> <path d="M246.805,183.043V18.507H0v164.537h95.281v33.357H43.985v11.897H203.82l0.152-11.897L152.898,216v-32.956H246.805z M181.487,173.933c-3.24,0-5.85-2.62-5.85-5.85s2.609-5.854,5.85-5.854s5.85,2.625,5.85,5.854 C187.347,171.313,184.727,173.933,181.487,173.933z M200.752,173.933c-3.239,0-5.859-2.62-5.859-5.85s2.62-5.854,5.859-5.854 c3.229,0,5.85,2.625,5.85,5.854S203.982,173.933,200.752,173.933z M218.698,173.933c-3.239,0-5.859-2.62-5.859-5.85 s2.62-5.854,5.859-5.854c3.23,0,5.851,2.625,5.851,5.854S221.928,173.933,218.698,173.933z M127.467,179.824 c-5.39,0-9.755-4.367-9.755-9.749c0-5.394,4.37-9.761,9.755-9.761c5.388,0,9.76,4.367,9.76,9.761 C137.227,175.457,132.855,179.824,127.467,179.824z M23.042,153.307V41.545h200.725v111.762H23.042z"></path> </g> </g> </g></svg>